<svg version="1.0"
    xmlns="http://www.w3.org/2000/svg" width="100" height="60" viewBox="0 0 300.000000 121.000000" preserveAspectRatio="xMidYMid meet">
    <g transform="translate(0.000000,121.000000) scale(0.100000,-0.100000)" fill="#000000" stroke="none">
        <path d="M368 1120 c-80 -24 -140 -93 -153 -175 -18 -113 55 -203 223 -274 56 -24 122 -58 146 -77 142 -108 113 -261 -55 -296 -49 -10 -63 -9 -105 6 -65 24 -168 130 -211 216 -18 37 -34 58 -36 50 -34 -111 -33 -113 38 -179 71 -66 164 -105 258 -109 68 -4 84 -1 133 23 76 37 107 86 112 176 4 60 1 74 -22 113 -35 60 -75 89 -196 141 -167 73 -229 131 -238 224 -4 45 -2 51 33 90 45 49 122 77 185 66 78 -13 161 -102 191 -202 7 -24 15 -43 19 -43 4 0 12 25 19 55 14 62 14 61 -48 128 -61 64 -197 96 -293 67z"/>
        <path d="M837 974 c-5 -50 -31 -93 -65 -109 -25 -11 -29 -25 -7 -25 27 0 33 -35 37 -230 4 -219 13 -255 77 -297 92 -62 208 1 256 138 17 48 18 49 7 49 -4 0 -16 -23 -26 -51 -22 -59 -79 -124 -119 -134 -36 -9 -74 16 -95 63 -13 30 -17 82 -20 257 l-4 221 -36 -3 -37 -4 35 18 c44 23 80 77 80 119 0 33 -1 34 -39 34 -38 0 -38 0 -44 -46z"/>
        <path d="M910 860 c-20 -6 -14 -8 28 -9 28 -1 52 3 52 9 0 12 -44 12 -80 0z"/>
        <path d="M1365 847 c-115 -56 -181 -166 -172 -288 10 -157 134 -269 295 -269 110 0 222 84 258 192 21 65 15 167 -14 223 -47 91 -142 152 -254 161 -53 4 -71 1 -113 -19z m162 -18 c108 -52 181 -219 154 -351 -37 -175 -194 -227 -317 -103 -64 64 -96 142 -96 235 -1 114 35 189 106 221 54 24 100 24 153 -2z"/>
        <path d="M1979 837 c-19 -12 -42 -38 -52 -57 l-18 -35 3 53 3 52 -59 0 c-57 0 -58 -1 -43 -18 15 -16 17 -50 17 -262 0 -212 -2 -246 -17 -262 -15 -17 -13 -18 57 -18 66 0 71 1 59 17 -11 12 -14 61 -14 217 0 223 9 262 66 291 44 23 114 19 138 -7 32 -34 39 -96 17 -149 -6 -14 4 -12 58 9 58 23 64 28 52 41 -7 9 -16 29 -20 45 -17 73 -67 106 -159 106 -40 0 -63 -6 -88 -23z"/>
        <path d="M2344 848 c-2 -4 4 -9 14 -13 21 -6 38 -41 167 -340 94 -219 92 -207 45 -311 -27 -60 -31 -64 -63 -64 -53 0 -118 80 -97 120 16 30 3 25 -54 -22 -28 -23 -53 -43 -55 -45 -8 -6 73 -84 101 -99 58 -30 127 -6 166 57 11 19 37 83 57 144 20 60 43 122 51 138 8 15 44 107 80 205 79 212 78 210 110 218 43 11 12 22 -41 15 -44 -6 -48 -8 -30 -18 18 -10 19 -15 7 -45 -7 -18 -43 -113 -80 -211 -48 -130 -69 -173 -74 -160 -5 10 -46 106 -93 213 -75 172 -83 196 -69 207 12 9 0 12 -61 15 -42 2 -79 0 -81 -4z m62 -709 c16 -33 9 -33 -28 -1 -22 18 -23 32 -3 32 8 0 22 -14 31 -31z"/>
    </g>
</svg> 